<svg width="21" height="21" viewBox="0 0 21 21" fill="none" xmlns="http://www.w3.org/2000/svg">
<path fill-rule="evenodd" clip-rule="evenodd" d="M20.5561 0.474487H0.246094V20.7845H20.5561V0.474487ZM10.7662 7.97127C9.77852 8.38209 7.80447 9.2324 4.84408 10.5222C4.36336 10.7134 4.11153 10.9004 4.08861 11.0832C4.04987 11.3923 4.43688 11.514 4.96389 11.6797C5.03557 11.7022 5.10985 11.7256 5.186 11.7503C5.7045 11.9189 6.40197 12.1161 6.76455 12.1239C7.09345 12.131 7.46054 11.9954 7.86582 11.7171C10.6318 9.85 12.0596 8.90627 12.1493 8.88593C12.2125 8.87157 12.3001 8.85353 12.3595 8.9063C12.4189 8.95908 12.4131 9.05903 12.4068 9.08584C12.3684 9.24928 10.8493 10.6616 10.0631 11.3925C9.81801 11.6204 9.64416 11.782 9.60862 11.8189C9.52901 11.9016 9.44787 11.9798 9.3699 12.055C8.8882 12.5194 8.52697 12.8676 9.3899 13.4362C9.80458 13.7095 10.1364 13.9355 10.4675 14.1609C10.829 14.4071 11.1896 14.6527 11.6562 14.9585C11.775 15.0364 11.8885 15.1174 11.9991 15.1962C12.4199 15.4962 12.7979 15.7656 13.2649 15.7227C13.5362 15.6977 13.8165 15.4425 13.9589 14.6815C14.2953 12.8831 14.9565 8.98637 15.1094 7.38062C15.1228 7.23994 15.1059 7.05989 15.0924 6.98085C15.0789 6.90182 15.0506 6.78921 14.9479 6.70584C14.8262 6.60712 14.6384 6.5863 14.5543 6.58778C14.1724 6.59451 13.5864 6.79827 10.7662 7.97127Z" fill="white"/>
</svg>
